# Blender 3.6.0
# www.blender.org
mtllib licenseplate.mtl
o plate
v -6.151385 2.891586 0.617824
v -6.347763 2.498829 0.617824
v -6.298669 2.744302 0.617824
v -6.298668 -2.835903 0.617824
v -5.905911 -3.032282 0.617824
v -6.151384 -2.983187 0.617824
v -6.347763 2.498829 0.617824
v -5.905911 -3.032282 0.617824
v -6.298668 -2.835903 0.617824
v 5.156311 2.940682 0.617823
v -5.905911 -3.032282 0.617824
v -6.347763 2.498829 0.617824
v 5.156311 2.940682 0.617823
v -6.347763 2.498829 0.617824
v -6.151385 2.891586 0.617824
v 5.156311 2.940682 0.617823
v -6.151385 2.891586 0.617824
v -5.905912 2.940681 0.617824
v -6.347763 2.498829 0.617824
v -6.298668 -2.835903 0.617824
v -6.347763 -2.590430 0.617824
v -5.905911 -3.032282 0.617824
v 5.401785 -2.983186 0.617824
v 5.156312 -3.032281 0.617824
v -5.905911 -3.032282 0.617824
v 5.598162 -2.590429 0.617824
v 5.401785 -2.983186 0.617824
v 5.156311 2.940682 0.617823
v 5.598162 -2.590429 0.617824
v -5.905911 -3.032282 0.617824
v 5.549068 2.744303 0.617823
v 5.598162 -2.590429 0.617824
v 5.156311 2.940682 0.617823
v 5.549068 2.744303 0.617823
v 5.156311 2.940682 0.617823
v 5.401784 2.891587 0.617823
v 5.598162 2.498830 0.617823
v 5.598162 -2.590429 0.617824
v 5.549068 2.744303 0.617823
v 5.401785 -2.983186 0.617824
v 5.598162 -2.590429 0.617824
v 5.549069 -2.835902 0.617824
v 5.000300 -2.948043 0.282576
v -6.179289 -2.518655 0.282577
v -6.131577 -2.757205 0.282577
v 5.000300 -2.948043 0.282576
v -6.131577 -2.757205 0.282577
v -5.988448 -2.900334 0.282577
v 5.000300 -2.948043 0.282576
v -5.988448 -2.900334 0.282577
v -5.749899 -2.948044 0.282577
v -6.179289 -2.518655 0.282577
v -6.131577 2.665604 0.282576
v -6.179289 2.427054 0.282576
v -6.179289 -2.518655 0.282577
v -5.988449 2.808733 0.282576
v -6.131577 2.665604 0.282576
v -6.179289 -2.518655 0.282577
v -5.749900 2.856443 0.282576
v -5.988449 2.808733 0.282576
v 5.000300 -2.948043 0.282576
v -5.749900 2.856443 0.282576
v -6.179289 -2.518655 0.282577
v 5.429688 2.427055 0.282576
v -5.749900 2.856443 0.282576
v 5.000300 -2.948043 0.282576
v 5.429688 2.427055 0.282576
v 5.000300 -2.948043 0.282576
v 5.238849 -2.900333 0.282576
v 5.429688 2.427055 0.282576
v 5.238849 -2.900333 0.282576
v 5.381977 -2.757204 0.282576
v 5.429688 2.427055 0.282576
v 5.381977 -2.757204 0.282576
v 5.429688 -2.518654 0.282576
v 5.000299 2.856444 0.282576
v -5.749900 2.856443 0.282576
v 5.238848 2.808734 0.282576
v 5.238848 2.808734 0.282576
v -5.749900 2.856443 0.282576
v 5.381977 2.665605 0.282576
v 5.381977 2.665605 0.282576
v -5.749900 2.856443 0.282576
v 5.429688 2.427055 0.282576
v 5.401784 2.891587 0.617823
v 5.381977 2.665605 0.282576
v 5.549068 2.744303 0.617823
v 5.429688 2.427055 0.282576
v 5.549068 2.744303 0.617823
v 5.381977 2.665605 0.282576
v 5.549068 2.744303 0.617823
v 5.429688 2.427055 0.282576
v 5.598162 2.498830 0.617823
v 5.429688 -2.518654 0.282576
v 5.598162 2.498830 0.617823
v 5.429688 2.427055 0.282576
v 5.598162 2.498830 0.617823
v 5.429688 -2.518654 0.282576
v 5.598162 -2.590429 0.617824
v 5.381977 -2.757204 0.282576
v 5.598162 -2.590429 0.617824
v 5.429688 -2.518654 0.282576
v 5.598162 -2.590429 0.617824
v 5.381977 -2.757204 0.282576
v 5.549069 -2.835902 0.617824
v 5.238849 -2.900333 0.282576
v 5.549069 -2.835902 0.617824
v 5.381977 -2.757204 0.282576
v 5.549069 -2.835902 0.617824
v 5.238849 -2.900333 0.282576
v 5.401785 -2.983186 0.617824
v 5.000300 -2.948043 0.282576
v 5.401785 -2.983186 0.617824
v 5.238849 -2.900333 0.282576
v 5.401785 -2.983186 0.617824
v 5.000300 -2.948043 0.282576
v 5.156312 -3.032281 0.617824
v -5.749899 -2.948044 0.282577
v 5.156312 -3.032281 0.617824
v 5.000300 -2.948043 0.282576
v 5.156312 -3.032281 0.617824
v -5.749899 -2.948044 0.282577
v -5.905911 -3.032282 0.617824
v -5.988448 -2.900334 0.282577
v -5.905911 -3.032282 0.617824
v -5.749899 -2.948044 0.282577
v -5.905911 -3.032282 0.617824
v -5.988448 -2.900334 0.282577
v -6.151384 -2.983187 0.617824
v -6.131577 -2.757205 0.282577
v -6.151384 -2.983187 0.617824
v -5.988448 -2.900334 0.282577
v -6.151384 -2.983187 0.617824
v -6.131577 -2.757205 0.282577
v -6.298668 -2.835903 0.617824
v -6.179289 -2.518655 0.282577
v -6.298668 -2.835903 0.617824
v -6.131577 -2.757205 0.282577
v -6.298668 -2.835903 0.617824
v -6.179289 -2.518655 0.282577
v -6.347763 -2.590430 0.617824
v -6.179289 2.427054 0.282576
v -6.347763 -2.590430 0.617824
v -6.179289 -2.518655 0.282577
v -6.347763 -2.590430 0.617824
v -6.179289 2.427054 0.282576
v -6.347763 2.498829 0.617824
v -6.131577 2.665604 0.282576
v -6.347763 2.498829 0.617824
v -6.179289 2.427054 0.282576
v -6.347763 2.498829 0.617824
v -6.131577 2.665604 0.282576
v -6.298669 2.744302 0.617824
v -5.988449 2.808733 0.282576
v -6.298669 2.744302 0.617824
v -6.131577 2.665604 0.282576
v -6.298669 2.744302 0.617824
v -5.988449 2.808733 0.282576
v -6.151385 2.891586 0.617824
v -5.749900 2.856443 0.282576
v -6.151385 2.891586 0.617824
v -5.988449 2.808733 0.282576
v -6.151385 2.891586 0.617824
v -5.749900 2.856443 0.282576
v -5.905912 2.940681 0.617824
v 5.000299 2.856444 0.282576
v -5.905912 2.940681 0.617824
v -5.749900 2.856443 0.282576
v -5.905912 2.940681 0.617824
v 5.000299 2.856444 0.282576
v 5.156311 2.940682 0.617823
v 5.238848 2.808734 0.282576
v 5.156311 2.940682 0.617823
v 5.000299 2.856444 0.282576
v 5.156311 2.940682 0.617823
v 5.238848 2.808734 0.282576
v 5.401784 2.891587 0.617823
v 5.381977 2.665605 0.282576
v 5.401784 2.891587 0.617823
v 5.238848 2.808734 0.282576
vn -0.0000 -0.0000 1.0000
vn -0.0000 -0.0000 -1.0000
vn 0.4649 0.7801 -0.4188
vn 0.7741 0.4103 -0.4821
vn 0.7704 0.4175 -0.4819
vn 0.8838 0.0791 -0.4611
vn 0.7703 0.4175 -0.4820
vn 0.8812 0.0950 -0.4632
vn 0.8838 -0.0791 -0.4611
vn 0.8812 0.0950 -0.4631
vn 0.8812 -0.0950 -0.4632
vn 0.7703 -0.4175 -0.4820
vn 0.7741 -0.4103 -0.4821
vn 0.3865 -0.8339 -0.3939
vn 0.7703 -0.4175 -0.4819
vn 0.4649 -0.7801 -0.4187
vn 0.0703 -0.9592 -0.2737
vn 0.4649 -0.7801 -0.4188
vn 0.1173 -0.9489 -0.2930
vn -0.0702 -0.9592 -0.2737
vn 0.0702 -0.9592 -0.2737
vn -0.1173 -0.9489 -0.2930
vn -0.3865 -0.8339 -0.3939
vn -0.0703 -0.9592 -0.2737
vn -0.4649 -0.7801 -0.4187
vn -0.7703 -0.4175 -0.4819
vn -0.3865 -0.8339 -0.3940
vn -0.4649 -0.7801 -0.4188
vn -0.7741 -0.4103 -0.4821
vn -0.8838 -0.0791 -0.4611
vn -0.7703 -0.4175 -0.4820
vn -0.8812 -0.0950 -0.4632
vn -0.8838 0.0791 -0.4611
vn -0.8812 -0.0950 -0.4631
vn -0.8812 0.0950 -0.4632
vn -0.7703 0.4175 -0.4820
vn -0.7741 0.4103 -0.4821
vn -0.3865 0.8339 -0.3939
vn -0.7703 0.4175 -0.4819
vn -0.4649 0.7801 -0.4187
vn -0.0703 0.9592 -0.2737
vn -0.4649 0.7801 -0.4188
vn -0.1173 0.9489 -0.2930
vn 0.0702 0.9592 -0.2737
vn -0.0702 0.9592 -0.2737
vn 0.1173 0.9489 -0.2930
vn 0.3865 0.8339 -0.3939
vn 0.0703 0.9592 -0.2737
vn 0.4649 0.7801 -0.4187
vn 0.7703 0.4175 -0.4819
vn 0.3865 0.8339 -0.3940
vt 0.014268 0.467897
vt 0.003567 0.456263
vt 0.000000 0.436875
vt 0.003567 0.015511
vt 0.014268 0.003878
vt 0.032102 0.000000
vt 0.835808 0.471774
vt 0.032102 0.471774
vt 0.000000 0.034900
vt 0.835808 0.000000
vt 0.853643 0.003878
vt 0.867910 0.034900
vt 0.864343 0.456263
vt 0.853643 0.467897
vt 0.867910 0.436875
vt 0.864343 0.015511
vt 0.032171 1.000000
vt 0.866200 0.984421
vt 0.869774 0.964947
vt 0.855476 0.996105
vt 0.837603 1.000000
vt 0.869774 0.561212
vt 0.866200 0.541738
vt 0.855476 0.530054
vt 0.837603 0.526159
vt 0.000000 0.561212
vt 0.014298 0.996105
vt 0.003575 0.984421
vt 0.000000 0.964947
vt 0.032171 0.526159
vt 0.014298 0.530054
vt 0.003575 0.541738
vt 0.021447 0.537843
vt 0.010724 0.549528
vt 0.010724 0.976632
vt 0.021447 0.988316
vt 0.848327 0.988316
vt 0.859051 0.976632
vt 0.859051 0.549528
vt 0.848327 0.537843
s 0
f 1/1/1 3/2/1 2/3/1
f 4/4/1 6/5/1 5/6/1
f 7/3/1 9/4/1 8/6/1
f 10/7/1 12/3/1 11/6/1
f 13/7/1 15/1/1 14/3/1
f 16/7/1 18/8/1 17/1/1
f 19/3/1 21/9/1 20/4/1
f 22/6/1 24/10/1 23/11/1
f 25/6/1 27/11/1 26/12/1
f 28/7/1 30/6/1 29/12/1
f 31/13/1 33/7/1 32/12/1
f 34/13/1 36/14/1 35/7/1
f 37/15/1 39/13/1 38/12/1
f 40/11/1 42/16/1 41/12/1
f 43/17/2 45/18/2 44/19/2
f 46/17/2 48/20/2 47/18/2
f 49/17/2 51/21/2 50/20/2
f 52/19/2 54/22/2 53/23/2
f 55/19/2 57/23/2 56/24/2
f 58/19/2 60/24/2 59/25/2
f 61/17/2 63/19/2 62/25/2
f 64/26/2 66/17/2 65/25/2
f 67/26/2 69/27/2 68/17/2
f 70/26/2 72/28/2 71/27/2
f 73/26/2 75/29/2 74/28/2
f 76/30/2 78/31/2 77/25/2
f 79/31/2 81/32/2 80/25/2
f 82/32/2 84/26/2 83/25/2
f 85/33/3 87/34/4 86/32/5
f 88/26/6 90/32/7 89/34/4
f 91/34/4 93/26/8 92/26/6
f 94/29/9 96/26/6 95/26/10
f 97/26/8 99/29/11 98/29/9
f 100/28/12 102/29/9 101/29/11
f 103/29/11 105/35/13 104/28/12
f 106/27/14 108/28/15 107/35/13
f 109/35/13 111/36/16 110/27/14
f 112/17/17 114/27/14 113/36/18
f 115/36/16 117/17/19 116/17/17
f 118/21/20 120/17/21 119/17/19
f 121/17/19 123/21/22 122/21/20
f 124/20/23 126/21/24 125/21/22
f 127/21/22 129/37/25 128/20/23
f 130/18/26 132/20/27 131/37/25
f 133/37/28 135/38/29 134/18/26
f 136/19/30 138/18/31 137/38/29
f 139/38/29 141/19/32 140/19/30
f 142/22/33 144/19/30 143/19/34
f 145/19/32 147/22/35 146/22/33
f 148/23/36 150/22/33 149/22/35
f 151/22/35 153/39/37 152/23/36
f 154/24/38 156/23/39 155/39/37
f 157/39/37 159/40/40 158/24/38
f 160/25/41 162/24/38 161/40/42
f 163/40/40 165/25/43 164/25/41
f 166/30/44 168/25/45 167/25/43
f 169/25/43 171/30/46 170/30/44
f 172/31/47 174/30/48 173/30/46
f 175/30/46 177/33/49 176/31/47
f 178/32/50 180/31/51 179/33/49
