# Blender 3.6.0
# www.blender.org
mtllib plateoflicense.mtl
o licenseplate
v -0.001676 0.029374 -0.057766
v -0.001676 0.025446 -0.059730
v -0.001676 0.027901 -0.059239
v -0.001676 -0.027901 -0.059239
v -0.001676 -0.029865 -0.055311
v -0.001676 -0.029374 -0.057766
v -0.001676 0.029865 0.055311
v -0.001676 0.029865 -0.055311
v -0.001676 -0.025446 -0.059730
v -0.001676 -0.029374 0.057766
v -0.001676 -0.029865 0.055311
v -0.001676 -0.025446 0.059730
v -0.001676 0.027901 0.059239
v -0.001676 0.029374 0.057766
v -0.001676 0.025446 0.059730
v -0.001676 -0.027901 0.059239
v 0.001676 -0.029022 0.053751
v 0.001676 -0.024729 -0.058045
v 0.001676 -0.027114 -0.057568
v 0.001676 -0.028545 -0.056136
v 0.001676 -0.029022 -0.053751
v 0.001676 0.027114 -0.057568
v 0.001676 0.024729 -0.058045
v 0.001676 0.028545 -0.056136
v 0.001676 0.029022 -0.053751
v 0.001676 0.024729 0.058045
v 0.001676 -0.028545 0.056136
v 0.001676 -0.027114 0.057568
v 0.001676 -0.024729 0.058045
v 0.001676 0.029022 0.053751
v 0.001676 0.028545 0.056136
v 0.001676 0.027114 0.057568
v -0.001676 0.029374 0.057766
v 0.001676 0.027114 0.057568
v -0.001676 0.027901 0.059239
v 0.001676 0.024729 0.058045
v -0.001676 0.025446 0.059730
v 0.001676 -0.024729 0.058045
v -0.001676 -0.025446 0.059730
v 0.001676 -0.027114 0.057568
v -0.001676 -0.027901 0.059239
v 0.001676 -0.028545 0.056136
v -0.001676 -0.029374 0.057766
v 0.001676 -0.029022 0.053751
v -0.001676 -0.029865 0.055311
v 0.001676 -0.029022 -0.053751
v -0.001676 -0.029865 -0.055311
v 0.001676 -0.028545 -0.056136
v -0.001676 -0.029374 -0.057766
v 0.001676 -0.027114 -0.057568
v -0.001676 -0.027901 -0.059239
v 0.001676 -0.024729 -0.058045
v -0.001676 -0.025446 -0.059730
v 0.001676 0.024729 -0.058045
v -0.001676 0.025446 -0.059730
v 0.001676 0.027114 -0.057568
v -0.001676 0.027901 -0.059239
v 0.001676 0.028545 -0.056136
v -0.001676 0.029374 -0.057766
v 0.001676 0.029022 -0.053751
v -0.001676 0.029865 -0.055311
v 0.001676 0.029022 0.053751
v -0.001676 0.029865 0.055311
v 0.001676 0.028545 0.056136
vn -1.0000 -0.0000 -0.0000
vn 1.0000 -0.0000 -0.0000
vn 0.4821 0.4103 0.7741
vn 0.4820 0.4175 0.7703
vn 0.4187 0.7801 0.4649
vn 0.4611 0.0791 0.8838
vn 0.4632 0.0950 0.8812
vn 0.4611 -0.0791 0.8838
vn 0.4632 -0.0950 0.8812
vn 0.4819 -0.4175 0.7703
vn 0.4821 -0.4103 0.7741
vn 0.3940 -0.8339 0.3865
vn 0.4187 -0.7801 0.4649
vn 0.2737 -0.9592 0.0702
vn 0.2930 -0.9489 0.1173
vn 0.2737 -0.9592 -0.0702
vn 0.2930 -0.9489 -0.1173
vn 0.3939 -0.8339 -0.3865
vn 0.4187 -0.7801 -0.4649
vn 0.4820 -0.4175 -0.7703
vn 0.4821 -0.4103 -0.7741
vn 0.4611 -0.0791 -0.8838
vn 0.4632 -0.0950 -0.8812
vn 0.4611 0.0791 -0.8838
vn 0.4632 0.0950 -0.8812
vn 0.4819 0.4175 -0.7703
vn 0.4821 0.4103 -0.7741
vn 0.3940 0.8339 -0.3865
vn 0.4187 0.7801 -0.4649
vn 0.2737 0.9592 -0.0702
vn 0.2930 0.9489 -0.1173
vn 0.2737 0.9592 0.0702
vn 0.2930 0.9489 0.1173
vn 0.3940 0.8339 0.3865
vt 0.003567 0.543737
vt 0.000000 0.563125
vt 0.014268 0.532103
vt 0.014268 0.996122
vt 0.032102 1.000000
vt 0.003567 0.984489
vt 0.835808 0.528226
vt 0.032102 0.528226
vt 0.000000 0.965100
vt 0.835808 1.000000
vt 0.853643 0.996122
vt 0.867910 0.965100
vt 0.864343 0.543737
vt 0.853643 0.532103
vt 0.867910 0.563125
vt 0.864343 0.984489
vt 0.866200 0.015579
vt 0.869774 0.035053
vt 0.032171 0.000000
vt 0.855476 0.003895
vt 0.837603 0.000000
vt 0.869774 0.438788
vt 0.866200 0.458262
vt 0.855476 0.469946
vt 0.837603 0.473841
vt 0.000000 0.438788
vt 0.014298 0.003895
vt 0.003575 0.015579
vt 0.000000 0.035053
vt 0.014298 0.469946
vt 0.032171 0.473841
vt 0.003575 0.458262
vt 0.010724 0.450472
vt 0.021447 0.462157
vt 0.010724 0.023368
vt 0.021447 0.011684
vt 0.848327 0.011684
vt 0.859051 0.023368
vt 0.859051 0.450472
vt 0.848327 0.462157
s 1
usemtl materials/sprops/trans/plates/lp_california
f 3/1/1 2/2/1 1/3/1
f 6/4/1 5/5/1 4/6/1
f 4/6/1 5/5/1 2/2/1
f 2/2/1 5/5/1 7/7/1
f 1/3/1 2/2/1 7/7/1
f 8/8/1 1/3/1 7/7/1
f 9/9/1 4/6/1 2/2/1
f 11/10/1 10/11/1 5/5/1
f 10/11/1 12/12/1 5/5/1
f 5/5/1 12/12/1 7/7/1
f 7/7/1 12/12/1 13/13/1
f 14/14/1 7/7/1 13/13/1
f 13/13/1 12/12/1 15/15/1
f 16/16/1 12/12/1 10/11/1
f 19/17/2 18/18/2 17/19/2
f 20/20/2 19/17/2 17/19/2
f 21/21/2 20/20/2 17/19/2
f 23/22/2 22/23/2 18/18/2
f 22/23/2 24/24/2 18/18/2
f 24/24/2 25/25/2 18/18/2
f 18/18/2 25/25/2 17/19/2
f 17/19/2 25/25/2 26/26/2
f 27/27/2 17/19/2 26/26/2
f 28/28/2 27/27/2 26/26/2
f 29/29/2 28/28/2 26/26/2
f 31/30/2 25/25/2 30/31/2
f 32/32/2 25/25/2 31/30/2
f 26/26/2 25/25/2 32/32/2
f 35/33/3 34/32/4 33/34/5
f 34/32/4 35/33/3 36/26/6
f 37/26/7 36/26/6 35/33/3
f 36/26/6 37/26/7 38/29/8
f 39/29/9 38/29/8 37/26/7
f 38/29/8 39/29/9 40/28/10
f 41/35/11 40/28/10 39/29/9
f 40/28/10 41/35/11 42/27/12
f 43/36/13 42/27/12 41/35/11
f 42/27/12 43/36/13 44/19/14
f 45/19/15 44/19/14 43/36/13
f 44/19/14 45/19/15 46/21/16
f 47/21/17 46/21/16 45/19/15
f 46/21/16 47/21/17 48/20/18
f 49/37/19 48/20/18 47/21/17
f 48/20/18 49/37/19 50/17/20
f 51/38/21 50/17/20 49/37/19
f 50/17/20 51/38/21 52/18/22
f 53/18/23 52/18/22 51/38/21
f 52/18/22 53/18/23 54/22/24
f 55/22/25 54/22/24 53/18/23
f 54/22/24 55/22/25 56/23/26
f 57/39/27 56/23/26 55/22/25
f 56/23/26 57/39/27 58/24/28
f 59/40/29 58/24/28 57/39/27
f 58/24/28 59/40/29 60/25/30
f 61/25/31 60/25/30 59/40/29
f 60/25/30 61/25/31 62/31/32
f 63/31/33 62/31/32 61/25/31
f 62/31/32 63/31/33 64/30/34
f 33/34/5 64/30/34 63/31/33
f 64/30/34 33/34/5 34/32/4
